<svg width="14" height="14" viewBox="0 0 14 14" fill="none" xmlns="http://www.w3.org/2000/svg">
<path d="M1.3125 2C0.587891 2 0 2.5599 0 3.25C0 3.64323 0.194141 4.01302 0.525 4.25L6.2125 8.3125C6.68008 8.64583 7.31992 8.64583 7.7875 8.3125L13.475 4.25C13.8059 4.01302 14 3.64323 14 3.25C14 2.5599 13.4121 2 12.6875 2H1.3125ZM0 5.4375V10.3333C0 11.2526 0.784766 12 1.75 12H12.25C13.2152 12 14 11.2526 14 10.3333V5.4375L8.575 9.3125C7.64258 9.97917 6.35742 9.97917 5.425 9.3125L0 5.4375Z" fill="#444746"/>
</svg>
