<svg width="14" height="14" viewBox="0 0 14 14" fill="none" xmlns="http://www.w3.org/2000/svg">
<path d="M4.66667 3.26667C4.66667 2.49347 4.03987 1.86667 3.26667 1.86667C2.49347 1.86667 1.86667 2.49347 1.86667 3.26667C1.86667 4.03987 2.49347 4.66667 3.26667 4.66667V6.53333C1.46254 6.53333 0 5.0708 0 3.26667C0 1.46254 1.46254 0 3.26667 0C5.0708 0 6.53333 1.46254 6.53333 3.26667C6.53333 5.0708 5.0708 6.53333 3.26667 6.53333V4.66667C4.03987 4.66667 4.66667 4.03987 4.66667 3.26667Z" fill="#444746"/>
<path d="M12.1333 10.7333C12.1333 9.96014 11.5065 9.33334 10.7333 9.33334C9.96014 9.33334 9.33334 9.96014 9.33334 10.7333C9.33334 11.5065 9.96014 12.1333 10.7333 12.1333V14C8.92921 14 7.46667 12.5375 7.46667 10.7333C7.46667 8.92921 8.92921 7.46667 10.7333 7.46667C12.5375 7.46667 14 8.92921 14 10.7333C14 12.5375 12.5375 14 10.7333 14V12.1333C11.5065 12.1333 12.1333 11.5065 12.1333 10.7333Z" fill="#444746"/>
<rect x="7.46667" y="2.79999" width="6.53333" height="1.86667" fill="#444746"/>
<rect y="10.2667" width="6.53333" height="1.86667" fill="#444746"/>
</svg>
